<svg width="674" height="449" viewBox="0 0 674 449" fill="none" xmlns="http://www.w3.org/2000/svg">
<path d="M43.9628 410.072H629.822" stroke="#263238" stroke-miterlimit="10"/>
<path d="M69.4849 259.998L81.3383 373.415" stroke="#263238" stroke-width="2" stroke-miterlimit="10"/>
<path d="M79.4242 351.711L74.0591 346.044" stroke="#263238" stroke-width="2" stroke-miterlimit="10"/>
<path d="M75.6857 347.741C75.6749 346.874 75.4785 346.019 75.1096 345.234C74.7406 344.448 74.2078 343.751 73.5469 343.189C72.1719 341.958 64.9197 338.914 64.2277 341.464C63.4818 344.239 70.9048 349.699 75.6857 347.741Z" fill="#1B9E4B" stroke="#263238" stroke-miterlimit="10"/>
<path d="M75.6857 347.742L68.7839 343.44" stroke="#263238" stroke-width="0.5" stroke-miterlimit="10"/>
<path d="M80.7722 364.615L75.4071 358.948" stroke="#263238" stroke-width="2" stroke-miterlimit="10"/>
<path d="M77.0337 360.646C77.0235 359.778 76.8273 358.923 76.4584 358.137C76.0894 357.352 75.5563 356.655 74.8949 356.093C73.5199 354.863 66.2677 351.809 65.5757 354.36C64.8298 357.143 72.2528 362.594 77.0337 360.646Z" fill="#1B9E4B" stroke="#263238" stroke-miterlimit="10"/>
<path d="M77.0337 360.646L70.1319 356.344" stroke="#263238" stroke-width="0.5" stroke-miterlimit="10"/>
<path d="M76.135 320.236L70.77 314.569" stroke="#263238" stroke-width="2" stroke-miterlimit="10"/>
<path d="M72.3966 316.267C72.3857 315.4 72.1902 314.546 71.8229 313.761C71.4557 312.976 70.9252 312.278 70.2667 311.714C68.8828 310.483 61.6306 307.43 60.9386 309.99C60.2107 312.764 67.6157 318.215 72.3966 316.267Z" fill="#1B9E4B" stroke="#263238" stroke-miterlimit="10"/>
<path d="M72.3966 316.267L65.4948 311.965" stroke="#263238" stroke-width="0.5" stroke-miterlimit="10"/>
<path d="M77.483 333.131L72.118 327.465" stroke="#263238" stroke-width="2" stroke-miterlimit="10"/>
<path d="M73.7446 329.162C73.7338 328.294 73.5373 327.439 73.1684 326.654C72.7995 325.869 72.2667 325.171 71.6058 324.609C70.2308 323.379 62.9786 320.334 62.2866 322.885C61.5407 325.66 68.9637 331.119 73.7446 329.162Z" fill="#1B9E4B" stroke="#263238" stroke-miterlimit="10"/>
<path d="M73.7446 329.162L66.8428 324.861" stroke="#263238" stroke-width="0.5" stroke-miterlimit="10"/>
<path d="M73.9513 299.276L68.5773 293.61" stroke="#263238" stroke-width="2" stroke-miterlimit="10"/>
<path d="M70.2128 295.307C70.202 294.44 70.0056 293.585 69.6367 292.799C69.2678 292.014 68.7349 291.317 68.074 290.754C66.699 289.533 59.4378 286.48 58.7548 289.03C57.9999 291.85 65.4319 297.238 70.2128 295.307Z" fill="#1B9E4B" stroke="#263238" stroke-miterlimit="10"/>
<path d="M70.2128 295.307L63.3021 291.006" stroke="#263238" stroke-width="0.5" stroke-miterlimit="10"/>
<path d="M71.7495 278.236L66.3845 272.57" stroke="#263238" stroke-width="2" stroke-miterlimit="10"/>
<path d="M68.0111 274.267C68.0003 273.4 67.8038 272.545 67.4349 271.759C67.066 270.974 66.5332 270.277 65.8723 269.714C64.4973 268.484 57.2451 265.431 56.5531 267.99C55.8072 270.765 63.2302 276.216 68.0111 274.267Z" fill="#1B9E4B" stroke="#263238" stroke-miterlimit="10"/>
<path d="M68.0111 274.267L61.1093 269.966" stroke="#263238" stroke-width="0.5" stroke-miterlimit="10"/>
<path d="M78.5255 344.078L82.6054 337.424" stroke="#263238" stroke-width="2" stroke-miterlimit="10"/>
<path d="M81.3653 339.444C81.1949 338.594 81.2094 337.716 81.4079 336.872C81.6063 336.028 81.9841 335.236 82.5156 334.55C83.603 333.059 90.0734 328.578 91.2776 330.958C92.5627 333.481 86.4427 340.342 81.3653 339.444Z" fill="#1B9E4B" stroke="#263238" stroke-miterlimit="10"/>
<path d="M81.3653 339.426L87.5841 333.481" stroke="#263238" stroke-width="0.5" stroke-miterlimit="10"/>
<path d="M74.9758 310.133L79.0647 303.479" stroke="#263238" stroke-width="2" stroke-miterlimit="10"/>
<path d="M77.8155 305.482C77.6475 304.631 77.6632 303.754 77.8616 302.91C78.06 302.066 78.4364 301.274 78.9658 300.587C80.0622 299.097 86.5326 294.616 87.7278 296.995C89.0399 299.537 82.902 306.398 77.8155 305.482Z" fill="#1B9E4B" stroke="#263238" stroke-miterlimit="10"/>
<path d="M77.8155 305.482L84.0343 299.537" stroke="#263238" stroke-width="0.5" stroke-miterlimit="10"/>
<path d="M73.4211 295.217L77.501 288.563" stroke="#263238" stroke-width="2" stroke-miterlimit="10"/>
<path d="M76.2609 290.557C76.0905 289.706 76.105 288.829 76.3034 287.985C76.5019 287.14 76.8797 286.348 77.4111 285.663C78.5075 284.181 84.9689 279.7 86.1731 282.071C87.4762 284.612 81.3383 291.482 76.2609 290.557Z" fill="#1B9E4B" stroke="#263238" stroke-miterlimit="10"/>
<path d="M76.2609 290.557L82.4796 284.621" stroke="#263238" stroke-width="0.5" stroke-miterlimit="10"/>
<path d="M71.1385 273.351L75.2184 266.697" stroke="#263238" stroke-width="2" stroke-miterlimit="10"/>
<path d="M73.9782 268.691C73.8078 267.84 73.8224 266.963 74.0208 266.119C74.2193 265.274 74.5971 264.482 75.1285 263.796C76.2159 262.306 82.6863 257.825 83.8905 260.204C85.1936 262.746 79.0827 269.615 73.9782 268.691Z" fill="#1B9E4B" stroke="#263238" stroke-miterlimit="10"/>
<path d="M73.9782 268.691L80.197 262.755" stroke="#263238" stroke-width="0.5" stroke-miterlimit="10"/>
<path d="M69.3861 259.36C69.218 258.51 69.2337 257.633 69.4321 256.789C69.6305 255.945 70.007 255.153 70.5363 254.466C71.6327 252.984 78.1031 248.503 79.3073 250.874C80.6104 253.416 74.4725 260.285 69.3861 259.36Z" fill="#1B9E4B" stroke="#263238" stroke-miterlimit="10"/>
<path d="M69.3861 259.36L75.6048 253.425" stroke="#263238" stroke-width="0.5" stroke-miterlimit="10"/>
<path d="M69.7545 259.621C68.8893 259.7 68.017 259.593 67.1968 259.306C66.3767 259.02 65.6277 258.56 65.0006 257.959C63.6346 256.72 59.8512 249.824 62.3046 248.872C65.0095 247.848 71.2014 254.664 69.7545 259.621Z" fill="#1B9E4B" stroke="#263238" stroke-miterlimit="10"/>
<path d="M69.7545 259.621L64.4883 252.814" stroke="#263238" stroke-width="0.5" stroke-miterlimit="10"/>
<path d="M100.732 275.614L88.95 389.05" stroke="#263238" stroke-width="2" stroke-miterlimit="10"/>
<path d="M91.5562 367.417L87.4672 360.762" stroke="#263238" stroke-width="2" stroke-miterlimit="10"/>
<path d="M88.7164 362.792C88.8844 361.941 88.8687 361.065 88.6703 360.221C88.472 359.377 88.0955 358.585 87.5661 357.898C86.4697 356.416 79.9993 351.935 78.7951 354.306C77.492 356.82 83.6389 363.69 88.7164 362.792Z" fill="#1B9E4B" stroke="#263238" stroke-miterlimit="10"/>
<path d="M88.7164 362.756L82.8481 357.126" stroke="#263238" stroke-width="0.5" stroke-miterlimit="10"/>
<path d="M94.8273 335.933L90.7384 329.279" stroke="#263238" stroke-width="2" stroke-miterlimit="10"/>
<path d="M91.9875 331.281C92.1556 330.431 92.1399 329.554 91.9415 328.71C91.7431 327.866 91.3666 327.074 90.8372 326.387C89.7409 324.896 83.2705 320.424 82.0662 322.795C80.7632 325.336 86.9011 332.206 91.9875 331.281Z" fill="#1B9E4B" stroke="#263238" stroke-miterlimit="10"/>
<path d="M91.9875 331.281L86.1102 325.651" stroke="#263238" stroke-width="0.5" stroke-miterlimit="10"/>
<path d="M93.4883 348.837L89.3994 342.183" stroke="#263238" stroke-width="2" stroke-miterlimit="10"/>
<path d="M90.6485 344.176C90.8165 343.326 90.8008 342.449 90.6025 341.605C90.4041 340.761 90.0276 339.969 89.4982 339.282C88.4018 337.801 81.9314 333.32 80.7272 335.69C79.4242 338.241 85.5621 345.101 90.6485 344.176Z" fill="#1B9E4B" stroke="#263238" stroke-miterlimit="10"/>
<path d="M90.6485 344.176L84.7712 338.546" stroke="#263238" stroke-width="0.5" stroke-miterlimit="10"/>
<path d="M97.0021 314.974L92.9131 308.328" stroke="#263238" stroke-width="2" stroke-miterlimit="10"/>
<path d="M94.1623 310.322C94.3303 309.471 94.3146 308.595 94.1163 307.751C93.9179 306.907 93.5414 306.115 93.012 305.428C91.9156 303.937 85.4452 299.465 84.241 301.836C82.9379 304.422 89.0848 311.247 94.1623 310.322Z" fill="#1B9E4B" stroke="#263238" stroke-miterlimit="10"/>
<path d="M94.1623 310.322L88.294 304.691" stroke="#263238" stroke-width="0.5" stroke-miterlimit="10"/>
<path d="M99.1858 293.933L95.1059 287.279" stroke="#263238" stroke-width="2" stroke-miterlimit="10"/>
<path d="M96.3461 289.273C96.5165 288.422 96.5019 287.545 96.3035 286.701C96.105 285.856 95.7272 285.064 95.1958 284.379C94.0994 282.897 87.629 278.416 86.4248 280.787C85.1217 283.337 91.2686 290.198 96.3461 289.273Z" fill="#1B9E4B" stroke="#263238" stroke-miterlimit="10"/>
<path d="M96.3461 289.273L90.4778 283.642" stroke="#263238" stroke-width="0.5" stroke-miterlimit="10"/>
<path d="M92.2481 359.757L97.6132 354.09" stroke="#263238" stroke-width="2" stroke-miterlimit="10"/>
<path d="M95.9866 355.788C95.9945 354.92 96.1888 354.065 96.5562 353.28C96.9237 352.494 97.4558 351.797 98.1164 351.235C99.5004 350.004 106.753 346.951 107.436 349.502C108.19 352.276 100.767 357.736 95.9866 355.788Z" fill="#1B9E4B" stroke="#263238" stroke-miterlimit="10"/>
<path d="M95.9866 355.788L103.293 351.253" stroke="#263238" stroke-width="0.5" stroke-miterlimit="10"/>
<path d="M95.7709 325.812L101.136 320.137" stroke="#263238" stroke-width="2" stroke-miterlimit="10"/>
<path d="M99.5094 321.834C99.5202 320.967 99.7166 320.112 100.086 319.326C100.454 318.541 100.987 317.844 101.648 317.281C103.023 316.051 110.275 312.998 110.967 315.557C111.713 318.332 104.29 323.783 99.5094 321.834Z" fill="#1B9E4B" stroke="#263238" stroke-miterlimit="10"/>
<path d="M99.5094 321.834L106.816 317.308" stroke="#263238" stroke-width="0.5" stroke-miterlimit="10"/>
<path d="M97.3256 310.888L102.691 305.221" stroke="#263238" stroke-width="2" stroke-miterlimit="10"/>
<path d="M101.055 306.918C101.066 306.051 101.262 305.196 101.631 304.411C102 303.625 102.533 302.928 103.194 302.366C104.569 301.135 111.821 298.082 112.513 300.632C113.232 303.407 105.845 308.912 101.055 306.918Z" fill="#1B9E4B" stroke="#263238" stroke-miterlimit="10"/>
<path d="M101.055 306.918L108.37 302.384" stroke="#263238" stroke-width="0.5" stroke-miterlimit="10"/>
<path d="M99.5902 289.021L104.964 283.346" stroke="#263238" stroke-width="2" stroke-miterlimit="10"/>
<path d="M103.347 285.052C103.357 284.185 103.553 283.329 103.922 282.544C104.291 281.759 104.824 281.061 105.485 280.499C106.86 279.26 114.113 276.207 114.805 278.766C115.533 281.541 108.11 287.001 103.347 285.052Z" fill="#1B9E4B" stroke="#263238" stroke-miterlimit="10"/>
<path d="M103.329 285.052L110.644 280.517" stroke="#263238" stroke-width="0.5" stroke-miterlimit="10"/>
<path d="M100.767 274.976C100.778 274.11 100.974 273.256 101.341 272.471C101.708 271.686 102.239 270.988 102.897 270.424C104.281 269.193 111.534 266.14 112.217 268.69C112.971 271.465 105.548 276.925 100.767 274.976Z" fill="#1B9E4B" stroke="#263238" stroke-miterlimit="10"/>
<path d="M100.767 274.977L108.074 270.442" stroke="#263238" stroke-width="0.5" stroke-miterlimit="10"/>
<path d="M101.064 275.3C100.203 275.199 99.373 274.916 98.6305 274.468C97.888 274.02 97.25 273.419 96.7594 272.705C95.681 271.205 93.3984 263.68 96.0135 263.258C98.8533 262.809 103.508 270.756 101.064 275.3Z" fill="#1B9E4B" stroke="#263238" stroke-miterlimit="10"/>
<path d="M101.064 275.3L97.3166 267.568" stroke="#263238" stroke-width="0.5" stroke-miterlimit="10"/>
<path d="M87.2336 229.421V372.868" stroke="#263238" stroke-width="2" stroke-miterlimit="10"/>
<path d="M87.3504 351.298L82.5965 345.101" stroke="#263238" stroke-width="2" stroke-miterlimit="10"/>
<path d="M84.0433 346.96C84.1228 346.096 84.0164 345.226 83.7312 344.406C83.446 343.587 82.9886 342.838 82.3898 342.21C81.1496 340.845 74.2478 337.064 73.2953 339.516C72.2618 342.21 79.0827 348.424 84.0433 346.96Z" fill="#1B9E4B" stroke="#263238" stroke-miterlimit="10"/>
<path d="M84.0433 346.96L77.6178 341.967" stroke="#263238" stroke-width="0.5" stroke-miterlimit="10"/>
<path d="M87.3504 324.34L82.5965 318.152" stroke="#263238" stroke-width="2" stroke-miterlimit="10"/>
<path d="M84.0433 320.002C84.1227 319.14 84.0162 318.27 83.7309 317.452C83.4457 316.635 82.9884 315.887 82.3898 315.261C81.1496 313.887 74.2478 310.106 73.2953 312.567C72.2618 315.261 79.0827 321.484 84.0433 320.002Z" fill="#1B9E4B" stroke="#263238" stroke-miterlimit="10"/>
<path d="M84.0433 320.002L77.6178 315.01" stroke="#263238" stroke-width="0.5" stroke-miterlimit="10"/>
<path d="M87.3504 292.694L82.5965 286.498" stroke="#263238" stroke-width="2" stroke-miterlimit="10"/>
<path d="M84.0433 288.357C84.1228 287.493 84.0164 286.622 83.7312 285.803C83.446 284.983 82.9886 284.234 82.3898 283.606C81.1496 282.241 74.2478 278.461 73.2953 280.912C72.2618 283.606 79.0827 289.802 84.0433 288.357Z" fill="#1B9E4B" stroke="#263238" stroke-miterlimit="10"/>
<path d="M84.0433 288.357L77.6178 283.364" stroke="#263238" stroke-width="0.5" stroke-miterlimit="10"/>
<path d="M87.3504 271.627L82.5965 265.431" stroke="#263238" stroke-width="2" stroke-miterlimit="10"/>
<path d="M84.0433 267.29C84.1228 266.426 84.0164 265.555 83.7312 264.736C83.446 263.916 82.9886 263.167 82.3898 262.539C81.1496 261.174 74.2478 257.385 73.2953 259.845C72.2618 262.539 79.0827 268.735 84.0433 267.29Z" fill="#1B9E4B" stroke="#263238" stroke-miterlimit="10"/>
<path d="M84.0433 267.29L77.6178 262.297" stroke="#263238" stroke-width="0.5" stroke-miterlimit="10"/>
<path d="M87.3504 250.461L82.5965 244.274" stroke="#263238" stroke-width="2" stroke-miterlimit="10"/>
<path d="M84.0433 246.133C84.1228 245.269 84.0164 244.398 83.7312 243.579C83.446 242.759 82.9886 242.011 82.3898 241.382C81.1496 240.018 74.2478 236.228 73.2953 238.688C72.2618 241.382 79.0827 247.579 84.0433 246.133Z" fill="#1B9E4B" stroke="#263238" stroke-miterlimit="10"/>
<path d="M84.0433 246.133L77.6178 241.14" stroke="#263238" stroke-width="0.5" stroke-miterlimit="10"/>
<path d="M87.2426 359.532L91.9965 353.336" stroke="#263238" stroke-width="2" stroke-miterlimit="10"/>
<path d="M90.5497 355.195C90.4701 354.331 90.5766 353.46 90.8618 352.641C91.147 351.821 91.6044 351.073 92.2032 350.444C93.4434 349.08 100.345 345.29 101.298 347.75C102.331 350.444 95.5103 356.641 90.5497 355.195Z" fill="#1B9E4B" stroke="#263238" stroke-miterlimit="10"/>
<path d="M90.5497 355.195L97.3526 349.933" stroke="#263238" stroke-width="0.5" stroke-miterlimit="10"/>
<path d="M87.2426 316.662L91.9965 310.466" stroke="#263238" stroke-width="2" stroke-miterlimit="10"/>
<path d="M90.5497 312.324C90.4701 311.46 90.5766 310.59 90.8618 309.77C91.147 308.951 91.6044 308.202 92.2032 307.574C93.4434 306.209 100.345 302.419 101.298 304.88C102.331 307.574 95.5103 313.77 90.5497 312.324Z" fill="#1B9E4B" stroke="#263238" stroke-miterlimit="10"/>
<path d="M90.5497 312.324L97.3526 307.062" stroke="#263238" stroke-width="0.5" stroke-miterlimit="10"/>
<path d="M87.2426 295.496L91.9965 289.3" stroke="#263238" stroke-width="2" stroke-miterlimit="10"/>
<path d="M90.5497 291.158C90.4701 290.295 90.5766 289.424 90.8618 288.604C91.147 287.785 91.6044 287.036 92.2032 286.408C93.4434 285.043 100.345 281.263 101.298 283.714C102.331 286.408 95.5103 292.604 90.5497 291.158Z" fill="#1B9E4B" stroke="#263238" stroke-miterlimit="10"/>
<path d="M90.5497 291.159L97.3526 285.896" stroke="#263238" stroke-width="0.5" stroke-miterlimit="10"/>
<path d="M87.2426 267.532L91.9965 261.336" stroke="#263238" stroke-width="2" stroke-miterlimit="10"/>
<path d="M90.5497 263.195C90.4701 262.331 90.5766 261.46 90.8618 260.641C91.147 259.821 91.6044 259.073 92.2032 258.444C93.4434 257.08 100.345 253.29 101.298 255.75C102.331 258.444 95.5103 264.641 90.5497 263.195Z" fill="#1B9E4B" stroke="#263238" stroke-miterlimit="10"/>
<path d="M90.5497 263.195L97.3526 257.933" stroke="#263238" stroke-width="0.5" stroke-miterlimit="10"/>
<path d="M87.2426 245.54L91.9965 239.344" stroke="#263238" stroke-width="2" stroke-miterlimit="10"/>
<path d="M90.5497 241.203C90.4701 240.339 90.5766 239.468 90.8618 238.649C91.147 237.829 91.6044 237.081 92.2032 236.452C93.4434 235.088 100.345 231.307 101.298 233.758C102.331 236.452 95.5103 242.649 90.5497 241.203Z" fill="#1B9E4B" stroke="#263238" stroke-miterlimit="10"/>
<path d="M90.5497 241.203L97.3526 235.94" stroke="#263238" stroke-width="0.5" stroke-miterlimit="10"/>
<path d="M86.964 231.45C86.8839 230.587 86.9891 229.717 87.2728 228.898C87.5564 228.079 88.0118 227.329 88.6085 226.7C89.8577 225.335 96.7505 221.555 97.703 224.006C98.7365 226.7 91.9156 232.896 86.964 231.45Z" fill="#1B9E4B" stroke="#263238" stroke-miterlimit="10"/>
<path d="M86.964 231.45L93.7579 226.188" stroke="#263238" stroke-width="0.5" stroke-miterlimit="10"/>
<path d="M87.2875 231.747C86.4199 231.735 85.5649 231.538 84.7804 231.168C83.9959 230.797 83.3001 230.263 82.7402 229.601C81.5091 228.227 78.4626 220.971 81.0238 220.288C83.8007 219.543 89.2466 226.97 87.2875 231.747Z" fill="#1B9E4B" stroke="#263238" stroke-miterlimit="10"/>
<path d="M87.2875 231.747L82.7672 224.437" stroke="#263238" stroke-width="0.5" stroke-miterlimit="10"/>
<path d="M93.1378 410.072H77.9414L76.0362 371.7H95.043L93.1378 410.072Z" fill="#263238" stroke="#263238" stroke-miterlimit="10"/>
<path d="M578.84 259.998L590.685 373.415" stroke="#263238" stroke-width="2" stroke-miterlimit="10"/>
<path d="M588.779 351.711L583.405 346.044" stroke="#263238" stroke-width="2" stroke-miterlimit="10"/>
<path d="M585.032 347.741C585.021 346.874 584.825 346.019 584.456 345.234C584.087 344.448 583.554 343.751 582.893 343.189C581.518 341.958 574.257 338.914 573.574 341.464C572.828 344.239 580.26 349.699 585.032 347.741Z" fill="#1B9E4B" stroke="#263238" stroke-miterlimit="10"/>
<path d="M585.041 347.742L578.13 343.44" stroke="#263238" stroke-width="0.5" stroke-miterlimit="10"/>
<path d="M590.127 364.615L584.753 358.948" stroke="#263238" stroke-width="2" stroke-miterlimit="10"/>
<path d="M586.389 360.646C586.379 359.778 586.183 358.923 585.814 358.137C585.445 357.352 584.912 356.655 584.25 356.093C582.866 354.863 575.614 351.809 574.931 354.36C574.176 357.143 581.608 362.594 586.389 360.646Z" fill="#1B9E4B" stroke="#263238" stroke-miterlimit="10"/>
<path d="M586.389 360.646L579.478 356.344" stroke="#263238" stroke-width="0.5" stroke-miterlimit="10"/>
<path d="M585.49 320.236L580.116 314.569" stroke="#263238" stroke-width="2" stroke-miterlimit="10"/>
<path d="M581.752 316.267C581.741 315.399 581.545 314.544 581.176 313.759C580.807 312.973 580.274 312.276 579.613 311.714C578.238 310.483 570.977 307.43 570.294 309.99C569.548 312.764 576.944 318.215 581.752 316.267Z" fill="#1B9E4B" stroke="#263238" stroke-miterlimit="10"/>
<path d="M581.752 316.267L574.841 311.965" stroke="#263238" stroke-width="0.5" stroke-miterlimit="10"/>
<path d="M586.838 333.131L581.464 327.465" stroke="#263238" stroke-width="2" stroke-miterlimit="10"/>
<path d="M583.1 329.162C583.089 328.294 582.893 327.439 582.524 326.654C582.155 325.869 581.622 325.171 580.961 324.609C579.586 323.379 572.325 320.334 571.642 322.885C570.887 325.66 578.319 331.119 583.1 329.162Z" fill="#1B9E4B" stroke="#263238" stroke-miterlimit="10"/>
<path d="M583.1 329.162L576.189 324.861" stroke="#263238" stroke-width="0.5" stroke-miterlimit="10"/>
<path d="M583.298 299.276L577.932 293.61" stroke="#263238" stroke-width="2" stroke-miterlimit="10"/>
<path d="M579.559 295.307C579.548 294.441 579.353 293.586 578.985 292.801C578.618 292.016 578.088 291.319 577.429 290.754C576.045 289.533 568.793 286.48 568.101 289.03C567.355 291.85 574.778 297.238 579.559 295.307Z" fill="#1B9E4B" stroke="#263238" stroke-miterlimit="10"/>
<path d="M579.559 295.307L572.657 291.006" stroke="#263238" stroke-width="0.5" stroke-miterlimit="10"/>
<path d="M581.105 278.236L575.731 272.57" stroke="#263238" stroke-width="2" stroke-miterlimit="10"/>
<path d="M577.366 274.267C577.356 273.4 577.159 272.545 576.79 271.759C576.421 270.974 575.889 270.277 575.228 269.714C573.853 268.484 566.591 265.431 565.908 267.99C565.153 270.765 572.585 276.216 577.366 274.267Z" fill="#1B9E4B" stroke="#263238" stroke-miterlimit="10"/>
<path d="M577.366 274.267L570.456 269.966" stroke="#263238" stroke-width="0.5" stroke-miterlimit="10"/>
<path d="M587.872 344.078L591.961 337.424" stroke="#263238" stroke-width="2" stroke-miterlimit="10"/>
<path d="M590.712 339.444C590.544 338.593 590.559 337.717 590.758 336.873C590.956 336.029 591.332 335.237 591.862 334.55C592.958 333.059 599.429 328.578 600.624 330.958C601.936 333.481 595.816 340.342 590.712 339.444Z" fill="#1B9E4B" stroke="#263238" stroke-miterlimit="10"/>
<path d="M590.712 339.426L596.93 333.481" stroke="#263238" stroke-width="0.5" stroke-miterlimit="10"/>
<path d="M584.331 310.133L588.411 303.479" stroke="#263238" stroke-width="2" stroke-miterlimit="10"/>
<path d="M587.171 305.482C587 304.631 587.015 303.754 587.213 302.91C587.412 302.065 587.79 301.273 588.321 300.587C589.408 299.097 595.879 294.616 597.083 296.995C598.386 299.537 592.221 306.398 587.171 305.482Z" fill="#1B9E4B" stroke="#263238" stroke-miterlimit="10"/>
<path d="M587.171 305.482L593.39 299.537" stroke="#263238" stroke-width="0.5" stroke-miterlimit="10"/>
<path d="M582.767 295.217L586.856 288.563" stroke="#263238" stroke-width="2" stroke-miterlimit="10"/>
<path d="M585.607 290.557C585.439 289.706 585.455 288.83 585.653 287.986C585.852 287.142 586.228 286.35 586.757 285.663C587.854 284.181 594.324 279.7 595.519 282.071C596.832 284.612 590.694 291.482 585.607 290.557Z" fill="#1B9E4B" stroke="#263238" stroke-miterlimit="10"/>
<path d="M585.607 290.557L591.826 284.621" stroke="#263238" stroke-width="0.5" stroke-miterlimit="10"/>
<path d="M580.485 273.351L584.574 266.697" stroke="#263238" stroke-width="2" stroke-miterlimit="10"/>
<path d="M583.325 268.691C583.156 267.84 583.172 266.963 583.371 266.119C583.569 265.275 583.945 264.483 584.475 263.796C585.571 262.306 592.042 257.825 593.237 260.204C594.549 262.746 588.411 269.615 583.325 268.691Z" fill="#1B9E4B" stroke="#263238" stroke-miterlimit="10"/>
<path d="M583.325 268.691L589.543 262.755" stroke="#263238" stroke-width="0.5" stroke-miterlimit="10"/>
<path d="M578.741 259.36C578.573 258.51 578.589 257.633 578.787 256.789C578.986 255.945 579.362 255.153 579.892 254.466C580.988 252.984 587.458 248.503 588.654 250.874C589.966 253.416 583.828 260.285 578.741 259.36Z" fill="#1B9E4B" stroke="#263238" stroke-miterlimit="10"/>
<path d="M578.741 259.36L584.96 253.425" stroke="#263238" stroke-width="0.5" stroke-miterlimit="10"/>
<path d="M579.101 259.621C578.236 259.7 577.363 259.593 576.543 259.306C575.723 259.02 574.974 258.56 574.347 257.959C572.981 256.72 569.206 249.824 571.651 248.872C574.365 247.848 580.539 254.664 579.101 259.621Z" fill="#1B9E4B" stroke="#263238" stroke-miterlimit="10"/>
<path d="M579.101 259.621L573.844 252.814" stroke="#263238" stroke-width="0.5" stroke-miterlimit="10"/>
<path d="M610.087 275.614L598.305 389.05" stroke="#263238" stroke-width="2" stroke-miterlimit="10"/>
<path d="M600.911 367.417L596.823 360.762" stroke="#263238" stroke-width="2" stroke-miterlimit="10"/>
<path d="M598.072 362.792C598.239 361.941 598.222 361.064 598.022 360.219C597.822 359.375 597.444 358.584 596.912 357.898C595.816 356.416 589.346 351.935 588.15 354.306C586.829 356.82 592.985 363.69 598.072 362.792Z" fill="#1B9E4B" stroke="#263238" stroke-miterlimit="10"/>
<path d="M598.072 362.756L592.194 357.126" stroke="#263238" stroke-width="0.5" stroke-miterlimit="10"/>
<path d="M604.183 335.933L600.094 329.279" stroke="#263238" stroke-width="2" stroke-miterlimit="10"/>
<path d="M601.334 331.281C601.504 330.431 601.49 329.553 601.291 328.709C601.093 327.865 600.715 327.073 600.184 326.387C599.087 324.896 592.617 320.424 591.422 322.795C590.109 325.336 596.256 332.206 601.334 331.281Z" fill="#1B9E4B" stroke="#263238" stroke-miterlimit="10"/>
<path d="M601.334 331.281L595.466 325.651" stroke="#263238" stroke-width="0.5" stroke-miterlimit="10"/>
<path d="M602.844 348.837L598.755 342.183" stroke="#263238" stroke-width="2" stroke-miterlimit="10"/>
<path d="M599.995 344.176C600.165 343.326 600.151 342.449 599.952 341.604C599.754 340.76 599.376 339.968 598.845 339.282C597.748 337.801 591.278 333.32 590.083 335.69C588.77 338.241 594.917 345.101 599.995 344.176Z" fill="#1B9E4B" stroke="#263238" stroke-miterlimit="10"/>
<path d="M599.995 344.176L594.126 338.546" stroke="#263238" stroke-width="0.5" stroke-miterlimit="10"/>
<path d="M606.357 314.974L602.268 308.328" stroke="#263238" stroke-width="2" stroke-miterlimit="10"/>
<path d="M603.518 310.322C603.685 309.471 603.668 308.594 603.468 307.749C603.268 306.905 602.89 306.114 602.358 305.428C601.262 303.937 594.792 299.465 593.596 301.836C592.293 304.422 598.431 311.247 603.518 310.322Z" fill="#1B9E4B" stroke="#263238" stroke-miterlimit="10"/>
<path d="M603.518 310.322L597.64 304.691" stroke="#263238" stroke-width="0.5" stroke-miterlimit="10"/>
<path d="M608.541 293.933L604.452 287.279" stroke="#263238" stroke-width="2" stroke-miterlimit="10"/>
<path d="M605.701 289.273C605.869 288.421 605.852 287.544 605.652 286.7C605.452 285.856 605.074 285.064 604.542 284.379C603.455 282.897 596.984 278.416 595.78 280.787C594.477 283.337 600.615 290.198 605.701 289.273Z" fill="#1B9E4B" stroke="#263238" stroke-miterlimit="10"/>
<path d="M605.701 289.273L599.824 283.642" stroke="#263238" stroke-width="0.5" stroke-miterlimit="10"/>
<path d="M601.603 359.757L606.968 354.09" stroke="#263238" stroke-width="2" stroke-miterlimit="10"/>
<path d="M605.333 355.788C605.344 354.92 605.54 354.065 605.909 353.28C606.278 352.494 606.811 351.797 607.472 351.235C608.847 350.004 616.099 346.951 616.791 349.502C617.537 352.276 610.123 357.736 605.333 355.788Z" fill="#1B9E4B" stroke="#263238" stroke-miterlimit="10"/>
<path d="M605.333 355.788L612.648 351.253" stroke="#263238" stroke-width="0.5" stroke-miterlimit="10"/>
<path d="M605.126 325.812L610.491 320.137" stroke="#263238" stroke-width="2" stroke-miterlimit="10"/>
<path d="M608.865 321.834C608.873 320.967 609.067 320.112 609.434 319.326C609.802 318.541 610.334 317.844 610.994 317.281C612.369 316.051 619.622 312.998 620.314 315.557C621.069 318.332 613.646 323.783 608.865 321.834Z" fill="#1B9E4B" stroke="#263238" stroke-miterlimit="10"/>
<path d="M608.865 321.834L616.171 317.308" stroke="#263238" stroke-width="0.5" stroke-miterlimit="10"/>
<path d="M606.672 310.888L612.037 305.221" stroke="#263238" stroke-width="2" stroke-miterlimit="10"/>
<path d="M610.41 306.918C610.421 306.051 610.618 305.196 610.986 304.411C611.355 303.625 611.888 302.928 612.549 302.366C613.924 301.135 621.176 298.082 621.868 300.632C622.614 303.407 615.191 308.912 610.41 306.918Z" fill="#1B9E4B" stroke="#263238" stroke-miterlimit="10"/>
<path d="M610.41 306.918L617.717 302.384" stroke="#263238" stroke-width="0.5" stroke-miterlimit="10"/>
<path d="M608.945 289.021L614.311 283.346" stroke="#263238" stroke-width="2" stroke-miterlimit="10"/>
<path d="M612.684 285.052C612.691 284.185 612.885 283.33 613.253 282.544C613.62 281.758 614.153 281.061 614.814 280.499C616.198 279.26 623.45 276.207 624.133 278.766C624.888 281.541 617.465 287.001 612.684 285.052Z" fill="#1B9E4B" stroke="#263238" stroke-miterlimit="10"/>
<path d="M612.684 285.052L619.99 280.517" stroke="#263238" stroke-width="0.5" stroke-miterlimit="10"/>
<path d="M610.114 274.976C610.125 274.109 610.321 273.254 610.69 272.469C611.059 271.683 611.592 270.986 612.253 270.424C613.628 269.193 620.88 266.14 621.572 268.69C622.327 271.465 614.904 276.925 610.114 274.976Z" fill="#1B9E4B" stroke="#263238" stroke-miterlimit="10"/>
<path d="M610.114 274.977L617.429 270.442" stroke="#263238" stroke-width="0.5" stroke-miterlimit="10"/>
<path d="M610.419 275.3C609.557 275.199 608.726 274.916 607.982 274.468C607.238 274.021 606.598 273.419 606.106 272.705C605.027 271.205 602.754 263.68 605.36 263.258C608.209 262.809 612.891 270.756 610.419 275.3Z" fill="#1B9E4B" stroke="#263238" stroke-miterlimit="10"/>
<path d="M610.419 275.3L606.672 267.568" stroke="#263238" stroke-width="0.5" stroke-miterlimit="10"/>
<path d="M596.589 229.421V372.868" stroke="#263238" stroke-width="2" stroke-miterlimit="10"/>
<path d="M596.697 351.298L591.952 345.101" stroke="#263238" stroke-width="2" stroke-miterlimit="10"/>
<path d="M593.399 346.96C593.478 346.096 593.372 345.226 593.087 344.406C592.801 343.587 592.344 342.838 591.745 342.21C590.496 340.845 583.603 337.064 582.651 339.516C581.617 342.21 588.438 348.424 593.399 346.96Z" fill="#1B9E4B" stroke="#263238" stroke-miterlimit="10"/>
<path d="M593.399 346.96L586.973 341.967" stroke="#263238" stroke-width="0.5" stroke-miterlimit="10"/>
<path d="M596.697 324.34L591.952 318.152" stroke="#263238" stroke-width="2" stroke-miterlimit="10"/>
<path d="M593.399 320.002C593.478 319.14 593.371 318.27 593.086 317.452C592.801 316.635 592.344 315.887 591.745 315.261C590.496 313.887 583.603 310.106 582.651 312.567C581.617 315.261 588.438 321.484 593.399 320.002Z" fill="#1B9E4B" stroke="#263238" stroke-miterlimit="10"/>
<path d="M593.399 320.002L586.973 315.01" stroke="#263238" stroke-width="0.5" stroke-miterlimit="10"/>
<path d="M596.697 292.694L591.952 286.498" stroke="#263238" stroke-width="2" stroke-miterlimit="10"/>
<path d="M593.399 288.357C593.478 287.493 593.372 286.622 593.087 285.803C592.801 284.983 592.344 284.234 591.745 283.606C590.496 282.241 583.603 278.461 582.651 280.912C581.617 283.606 588.438 289.802 593.399 288.357Z" fill="#1B9E4B" stroke="#263238" stroke-miterlimit="10"/>
<path d="M593.399 288.357L586.973 283.364" stroke="#263238" stroke-width="0.5" stroke-miterlimit="10"/>
<path d="M596.697 271.627L591.952 265.431" stroke="#263238" stroke-width="2" stroke-miterlimit="10"/>
<path d="M593.399 267.29C593.478 266.426 593.372 265.555 593.087 264.736C592.801 263.916 592.344 263.167 591.745 262.539C590.496 261.174 583.603 257.385 582.651 259.845C581.617 262.539 588.438 268.735 593.399 267.29Z" fill="#1B9E4B" stroke="#263238" stroke-miterlimit="10"/>
<path d="M593.399 267.29L586.973 262.297" stroke="#263238" stroke-width="0.5" stroke-miterlimit="10"/>
<path d="M596.697 250.461L591.952 244.274" stroke="#263238" stroke-width="2" stroke-miterlimit="10"/>
<path d="M593.399 246.133C593.478 245.269 593.372 244.398 593.087 243.579C592.801 242.759 592.344 242.011 591.745 241.382C590.496 240.018 583.603 236.228 582.651 238.688C581.617 241.382 588.438 247.579 593.399 246.133Z" fill="#1B9E4B" stroke="#263238" stroke-miterlimit="10"/>
<path d="M593.399 246.133L586.973 241.14" stroke="#263238" stroke-width="0.5" stroke-miterlimit="10"/>
<path d="M596.598 359.532L601.352 353.336" stroke="#263238" stroke-width="2" stroke-miterlimit="10"/>
<path d="M599.905 355.195C599.825 354.331 599.932 353.46 600.217 352.641C600.502 351.821 600.96 351.073 601.558 350.444C602.799 349.08 609.7 345.29 610.644 347.75C611.677 350.444 604.857 356.641 599.905 355.195Z" fill="#1B9E4B" stroke="#263238" stroke-miterlimit="10"/>
<path d="M599.905 355.195L606.708 349.933" stroke="#263238" stroke-width="0.5" stroke-miterlimit="10"/>
<path d="M596.598 316.662L601.352 310.466" stroke="#263238" stroke-width="2" stroke-miterlimit="10"/>
<path d="M599.905 312.324C599.825 311.46 599.932 310.59 600.217 309.77C600.502 308.951 600.96 308.202 601.558 307.574C602.799 306.209 609.7 302.419 610.644 304.88C611.677 307.574 604.857 313.77 599.905 312.324Z" fill="#1B9E4B" stroke="#263238" stroke-miterlimit="10"/>
<path d="M599.905 312.324L606.708 307.062" stroke="#263238" stroke-width="0.5" stroke-miterlimit="10"/>
<path d="M596.598 295.496L601.352 289.3" stroke="#263238" stroke-width="2" stroke-miterlimit="10"/>
<path d="M599.905 291.158C599.825 290.295 599.932 289.424 600.217 288.604C600.502 287.785 600.96 287.036 601.558 286.408C602.799 285.043 609.7 281.263 610.644 283.714C611.677 286.408 604.857 292.604 599.905 291.158Z" fill="#1B9E4B" stroke="#263238" stroke-miterlimit="10"/>
<path d="M599.905 291.159L606.708 285.896" stroke="#263238" stroke-width="0.5" stroke-miterlimit="10"/>
<path d="M596.598 267.532L601.352 261.336" stroke="#263238" stroke-width="2" stroke-miterlimit="10"/>
<path d="M599.905 263.195C599.825 262.331 599.932 261.46 600.217 260.641C600.502 259.821 600.96 259.073 601.558 258.444C602.799 257.08 609.7 253.29 610.644 255.75C611.677 258.444 604.857 264.641 599.905 263.195Z" fill="#1B9E4B" stroke="#263238" stroke-miterlimit="10"/>
<path d="M599.905 263.195L606.708 257.933" stroke="#263238" stroke-width="0.5" stroke-miterlimit="10"/>
<path d="M596.598 245.54L601.352 239.344" stroke="#263238" stroke-width="2" stroke-miterlimit="10"/>
<path d="M599.905 241.203C599.825 240.339 599.932 239.468 600.217 238.649C600.502 237.829 600.96 237.081 601.558 236.452C602.799 235.088 609.7 231.307 610.644 233.758C611.677 236.452 604.857 242.649 599.905 241.203Z" fill="#1B9E4B" stroke="#263238" stroke-miterlimit="10"/>
<path d="M599.905 241.203L606.708 235.94" stroke="#263238" stroke-width="0.5" stroke-miterlimit="10"/>
<path d="M596.31 231.45C596.231 230.587 596.337 229.716 596.622 228.896C596.908 228.077 597.365 227.328 597.964 226.7C599.204 225.335 606.106 221.555 607.058 224.006C608.092 226.7 601.271 232.896 596.31 231.45Z" fill="#1B9E4B" stroke="#263238" stroke-miterlimit="10"/>
<path d="M596.31 231.45L603.113 226.188" stroke="#263238" stroke-width="0.5" stroke-miterlimit="10"/>
<path d="M596.643 231.747C595.774 231.736 594.918 231.538 594.132 231.168C593.346 230.798 592.648 230.263 592.086 229.601C590.864 228.227 587.818 220.971 590.37 220.288C593.12 219.543 598.602 226.97 596.643 231.747Z" fill="#1B9E4B" stroke="#263238" stroke-miterlimit="10"/>
<path d="M596.643 231.747L592.122 224.437" stroke="#263238" stroke-width="0.5" stroke-miterlimit="10"/>
<path d="M602.493 410.072H587.288L585.391 371.7H604.389L602.493 410.072Z" fill="#263238" stroke="#263238" stroke-miterlimit="10"/>
<path d="M608.397 106.862C608.4 101.76 607.172 96.732 604.818 92.2044C602.464 87.6767 599.053 83.7824 594.873 80.851C590.694 77.9196 585.87 76.0374 580.808 75.3638C575.747 74.6901 570.598 75.2448 565.796 76.9809C560.995 78.717 556.683 81.5834 553.225 85.3375C549.766 89.0916 547.264 93.6229 545.93 98.5478C544.596 103.473 544.469 108.647 545.559 113.631C546.649 118.616 548.926 123.264 552.195 127.184C556.876 132.791 559.44 139.862 559.438 147.164V151.511H593.749V147.164C593.73 139.874 596.274 132.808 600.938 127.202C605.742 121.51 608.383 114.308 608.397 106.862Z" fill="#E9F9EF" stroke="#263238" stroke-linecap="round" stroke-linejoin="round"/>
<path d="M593.749 151.52H559.393V160.015H593.749V151.52Z" fill="#1B9E4B" stroke="#263238" stroke-linecap="round" stroke-linejoin="round"/>
<path d="M559.393 160.032H593.749V164.28C593.749 165.407 593.301 166.487 592.504 167.283C591.707 168.08 590.626 168.528 589.498 168.528H563.635C562.507 168.528 561.426 168.08 560.629 167.283C559.832 166.487 559.384 165.407 559.384 164.28V160.032H559.393Z" fill="#1B9E4B" stroke="#263238" stroke-linecap="round" stroke-linejoin="round"/>
<path d="M563.725 168.519H589.409V171.213C589.409 172.739 588.802 174.203 587.721 175.283C586.641 176.362 585.176 176.969 583.648 176.969H569.485C567.957 176.969 566.492 176.362 565.412 175.283C564.332 174.203 563.725 172.739 563.725 171.213V168.519Z" fill="#263238" stroke="#263238" stroke-linecap="round" stroke-linejoin="round"/>
<path d="M612.864 107.032H627.422" stroke="#263238" stroke-linecap="round" stroke-linejoin="round"/>
<path d="M524.354 107.032H539.101" stroke="#263238" stroke-linecap="round" stroke-linejoin="round"/>
<path d="M575.893 70.1248V55.5413" stroke="#263238" stroke-linecap="round" stroke-linejoin="round"/>
<path d="M602.277 80.6583L612.324 70.6187" stroke="#263238" stroke-linecap="round" stroke-linejoin="round"/>
<path d="M539.452 143.437L549.643 133.254" stroke="#263238" stroke-linecap="round" stroke-linejoin="round"/>
<path d="M549.211 80.3709L539.452 70.6187" stroke="#263238" stroke-linecap="round" stroke-linejoin="round"/>
<path d="M612.325 143.438L602.61 133.73" stroke="#263238" stroke-linecap="round" stroke-linejoin="round"/>
<path d="M388.718 96.1937L346.652 38.0662L304.576 96.1937H321.884V160.769H371.419V96.1937H388.718Z" fill="#1B9E4B" stroke="#263238" stroke-linecap="round" stroke-linejoin="round"/>
<path d="M353.273 195.536C376.919 191.718 392.99 169.468 389.169 145.84C385.347 122.212 363.081 106.153 339.435 109.972C315.79 113.79 299.719 136.04 303.54 159.668C307.362 183.296 329.628 199.355 353.273 195.536Z" fill="#E9F9EF" stroke="#263238" stroke-linecap="round" stroke-linejoin="round"/>
<path d="M379.381 169.394C388.575 151.176 381.248 128.959 363.016 119.773C344.784 110.586 322.551 117.907 313.358 136.126C304.164 154.344 311.491 176.56 329.723 185.747C347.955 194.934 370.187 187.612 379.381 169.394Z" fill="#E9F9EF" stroke="#263238" stroke-linecap="round" stroke-linejoin="round"/>
<path d="M358.703 158.291C358.703 148.619 344.989 148.413 344.989 144.372C344.989 142.252 346.103 141.615 348.395 141.615C350.363 141.615 351.99 142.459 353.922 144.165L358.415 138.957C356.326 136.595 353.497 135.012 350.39 134.467V129.079H344.459V134.7C339.337 135.805 336.272 139.451 336.272 144.821C336.272 154.124 349.986 154.699 349.986 158.955C349.986 161.029 348.925 161.927 346.265 161.927C344.037 161.927 341.772 161.083 338.932 158.955L334.996 165.115C337.693 167.343 340.981 168.738 344.459 169.129V174.464H350.417V168.752C355.962 167.405 358.703 163.436 358.703 158.291Z" fill="#1B9E4B" stroke="#263238" stroke-linecap="round" stroke-linejoin="round"/>
<path d="M131.745 121.534C147.089 118.753 157.272 104.069 154.489 88.7364C151.706 73.4038 137.011 63.2285 121.667 66.0094C106.323 68.7903 96.1401 83.4743 98.923 98.8069C101.706 114.14 116.401 124.315 131.745 121.534Z" fill="#E9F9EF" stroke="#263238" stroke-linecap="round" stroke-linejoin="round"/>
<path d="M134.683 66.7305L126.712 93.7782H154.948C154.945 87.6879 152.97 81.7621 149.317 76.8868C145.664 72.0114 140.531 68.4484 134.683 66.7305Z" fill="#1B9E4B" stroke="#263238" stroke-linecap="round" stroke-linejoin="round"/>
<path d="M144.245 75.9796L155.451 62.7791H165.067" stroke="#263238" stroke-width="0.5" stroke-linecap="round" stroke-linejoin="round"/>
<path d="M171.879 63.1743H186.294" stroke="#263238" stroke-width="0.5" stroke-linecap="round" stroke-linejoin="round"/>
<path d="M171.879 66.7754H186.294" stroke="#263238" stroke-width="0.5" stroke-linecap="round" stroke-linejoin="round"/>
<path d="M171.879 70.3762H186.294" stroke="#263238" stroke-width="0.5" stroke-linecap="round" stroke-linejoin="round"/>
<path d="M171.879 73.9773H186.294" stroke="#263238" stroke-width="0.5" stroke-linecap="round" stroke-linejoin="round"/>
<path d="M99.6981 151.825H91.4843V176.313H99.6981V151.825Z" fill="#263238" stroke="#263238" stroke-width="0.5" stroke-linecap="round" stroke-linejoin="round"/>
<path d="M112.603 160.634H104.389V176.313H112.603V160.634Z" fill="#1B9E4B" stroke="#263238" stroke-linecap="round" stroke-linejoin="round"/>
<path d="M125.517 146.464H117.303V176.313H125.517V146.464Z" fill="#263238" stroke="#263238" stroke-width="0.5" stroke-linecap="round" stroke-linejoin="round"/>
<path d="M138.431 152.642H130.217V176.322H138.431V152.642Z" fill="#1B9E4B" stroke="#263238" stroke-linecap="round" stroke-linejoin="round"/>
<path d="M151.335 147.227H143.122V176.313H151.335V147.227Z" fill="#263238" stroke="#263238" stroke-width="0.5" stroke-linecap="round" stroke-linejoin="round"/>
<path d="M164.249 129.994H156.035V176.322H164.249V129.994Z" fill="#1B9E4B" stroke="#263238" stroke-linecap="round" stroke-linejoin="round"/>
<path d="M173.479 129.51H178.286" stroke="#263238" stroke-width="0.5" stroke-linecap="round" stroke-linejoin="round"/>
<path d="M173.479 138.867H178.286" stroke="#263238" stroke-width="0.5" stroke-linecap="round" stroke-linejoin="round"/>
<path d="M173.479 148.233H178.286" stroke="#263238" stroke-width="0.5" stroke-linecap="round" stroke-linejoin="round"/>
<path d="M173.479 157.599H178.286" stroke="#263238" stroke-width="0.5" stroke-linecap="round" stroke-linejoin="round"/>
<path d="M173.479 166.965H178.286" stroke="#263238" stroke-width="0.5" stroke-linecap="round" stroke-linejoin="round"/>
<path d="M173.479 176.322H178.286" stroke="#263238" stroke-width="0.5" stroke-linecap="round" stroke-linejoin="round"/>
<path d="M96.1843 142.8L108.766 150.406L121.859 136.397L134.791 137.484L147.318 132.518L161.499 113.875" stroke="#263238" stroke-linecap="round" stroke-linejoin="round"/>
<path d="M97.7659 142.782C97.7659 142.467 97.6724 142.16 97.4972 141.898C97.3221 141.637 97.0731 141.433 96.7819 141.313C96.4908 141.193 96.1705 141.162 95.8617 141.224C95.5529 141.286 95.2695 141.438 95.0474 141.661C94.8253 141.885 94.6745 142.169 94.6141 142.478C94.5538 142.786 94.5866 143.106 94.7083 143.397C94.8301 143.687 95.0354 143.934 95.2981 144.108C95.5609 144.282 95.8693 144.373 96.1843 144.372C96.3928 144.372 96.5992 144.33 96.7917 144.25C96.9841 144.17 97.1589 144.053 97.3059 143.905C97.4529 143.758 97.5692 143.582 97.6481 143.39C97.7271 143.197 97.7671 142.99 97.7659 142.782Z" fill="#263238"/>
<path d="M110.356 150.406C110.356 150.092 110.263 149.784 110.088 149.523C109.913 149.262 109.665 149.058 109.374 148.938C109.084 148.817 108.764 148.786 108.455 148.847C108.147 148.909 107.863 149.06 107.641 149.282C107.418 149.504 107.267 149.788 107.206 150.096C107.144 150.404 107.176 150.724 107.296 151.014C107.416 151.305 107.62 151.553 107.882 151.728C108.143 151.902 108.451 151.996 108.766 151.996C108.975 151.997 109.182 151.956 109.376 151.877C109.569 151.798 109.745 151.681 109.893 151.533C110.041 151.385 110.158 151.209 110.238 151.016C110.317 150.822 110.357 150.615 110.356 150.406Z" fill="#263238"/>
<path d="M123.441 136.397C123.441 136.083 123.347 135.775 123.172 135.513C122.997 135.252 122.748 135.048 122.457 134.928C122.166 134.808 121.845 134.777 121.537 134.839C121.228 134.901 120.944 135.053 120.722 135.277C120.5 135.5 120.349 135.784 120.289 136.093C120.229 136.402 120.261 136.722 120.383 137.012C120.505 137.302 120.71 137.55 120.973 137.723C121.236 137.897 121.544 137.989 121.859 137.987C122.068 137.987 122.274 137.946 122.467 137.866C122.659 137.786 122.834 137.668 122.981 137.521C123.128 137.373 123.244 137.198 123.323 137.005C123.402 136.812 123.442 136.606 123.441 136.397Z" fill="#263238"/>
<path d="M136.373 137.484C136.373 137.169 136.279 136.861 136.104 136.6C135.929 136.338 135.68 136.134 135.389 136.014C135.097 135.894 134.777 135.863 134.468 135.925C134.16 135.988 133.876 136.14 133.654 136.363C133.432 136.586 133.281 136.87 133.221 137.179C133.161 137.488 133.193 137.808 133.315 138.098C133.437 138.389 133.642 138.636 133.905 138.81C134.168 138.983 134.476 139.075 134.791 139.073C134.999 139.073 135.206 139.032 135.398 138.952C135.591 138.872 135.766 138.755 135.913 138.607C136.06 138.459 136.176 138.284 136.255 138.091C136.334 137.899 136.374 137.692 136.373 137.484Z" fill="#263238"/>
<path d="M148.909 132.266C148.909 131.952 148.816 131.645 148.641 131.383C148.466 131.122 148.218 130.918 147.927 130.798C147.636 130.678 147.317 130.646 147.008 130.708C146.7 130.769 146.416 130.92 146.194 131.143C145.971 131.365 145.82 131.648 145.758 131.956C145.697 132.265 145.728 132.584 145.849 132.875C145.969 133.165 146.173 133.413 146.435 133.588C146.696 133.763 147.004 133.856 147.318 133.856C147.74 133.856 148.145 133.688 148.443 133.39C148.741 133.092 148.909 132.688 148.909 132.266Z" fill="#263238"/>
<path d="M163.081 113.875C163.081 113.561 162.988 113.253 162.812 112.991C162.637 112.73 162.388 112.526 162.097 112.406C161.806 112.286 161.486 112.255 161.177 112.317C160.868 112.379 160.585 112.531 160.362 112.755C160.14 112.978 159.99 113.262 159.929 113.571C159.869 113.88 159.902 114.2 160.023 114.49C160.145 114.78 160.35 115.028 160.613 115.201C160.876 115.375 161.184 115.467 161.499 115.465C161.92 115.462 162.322 115.294 162.618 114.996C162.915 114.698 163.081 114.295 163.081 113.875Z" fill="#263238"/>
<path d="M476.284 371.251H481.407V321.933H476.284V371.251Z" fill="#263238" stroke="#263238" stroke-linecap="round" stroke-linejoin="round"/>
<path d="M501.795 323.664L510.828 324.72L516.56 275.736L507.528 274.68L501.795 323.664Z" fill="#263238" stroke="#263238" stroke-linecap="round" stroke-linejoin="round"/>
<path d="M472.339 373.272V364.956H485.343V373.343L537.358 394.204V404.046H533.808V396.566L478.657 384.021L424.961 396.566V404.046H421.511V394.204L472.339 373.272Z" fill="#8C8C8C" stroke="#263238" stroke-linecap="round" stroke-linejoin="round"/>
<path d="M466.04 337.684H491.652V321.933H466.04V337.684Z" fill="#263238" stroke="#263238" stroke-linecap="round" stroke-linejoin="round"/>
<path d="M537.403 404.441C537.403 403.35 537.726 402.284 538.333 401.377C538.94 400.47 539.802 399.763 540.811 399.346C541.82 398.929 542.93 398.821 544 399.034C545.071 399.248 546.054 399.774 546.825 400.546C547.597 401.318 548.121 402.301 548.333 403.371C548.545 404.441 548.435 405.55 548.016 406.557C547.597 407.565 546.888 408.425 545.979 409.03C545.071 409.635 544.003 409.957 542.911 409.955C542.187 409.955 541.47 409.812 540.801 409.535C540.132 409.258 539.525 408.852 539.013 408.339C538.501 407.827 538.096 407.219 537.819 406.551C537.543 405.882 537.401 405.165 537.403 404.441Z" fill="#263238" stroke="#263238" stroke-linecap="round" stroke-linejoin="round"/>
<path d="M540.503 404.441C540.503 403.974 540.642 403.518 540.901 403.129C541.161 402.741 541.53 402.438 541.962 402.259C542.394 402.081 542.869 402.034 543.328 402.125C543.786 402.216 544.207 402.441 544.538 402.771C544.868 403.102 545.093 403.522 545.185 403.981C545.276 404.439 545.229 404.914 545.05 405.345C544.871 405.777 544.568 406.146 544.18 406.405C543.791 406.665 543.334 406.803 542.867 406.803C542.24 406.803 541.639 406.554 541.195 406.111C540.752 405.668 540.503 405.068 540.503 404.441Z" fill="#E9F9EF" stroke="#263238" stroke-linecap="round" stroke-linejoin="round"/>
<path d="M410.08 404.441C410.08 403.351 410.403 402.285 411.009 401.378C411.616 400.471 412.478 399.765 413.486 399.347C414.494 398.93 415.604 398.821 416.674 399.033C417.744 399.246 418.727 399.771 419.499 400.542C420.271 401.314 420.796 402.296 421.009 403.366C421.222 404.435 421.113 405.544 420.695 406.551C420.278 407.559 419.57 408.42 418.663 409.026C417.756 409.632 416.689 409.955 415.597 409.955C414.134 409.955 412.731 409.374 411.696 408.34C410.661 407.306 410.08 405.904 410.08 404.441Z" fill="#263238" stroke="#263238" stroke-linecap="round" stroke-linejoin="round"/>
<path d="M415.597 406.803C416.903 406.803 417.961 405.746 417.961 404.441C417.961 403.137 416.903 402.08 415.597 402.08C414.292 402.08 413.234 403.137 413.234 404.441C413.234 405.746 414.292 406.803 415.597 406.803Z" fill="#E9F9EF" stroke="#263238" stroke-linecap="round" stroke-linejoin="round"/>
<path d="M476.473 404.334H480.805L482.979 374.798H474.307L476.473 404.334Z" fill="#8C8C8C" stroke="#263238" stroke-linecap="round" stroke-linejoin="round"/>
<path d="M476.68 410.233H481.011V398.03H476.68V410.233Z" fill="#263238" stroke="#263238" stroke-linecap="round" stroke-linejoin="round"/>
<path d="M512.959 299.267C515.486 299.511 518.037 299.255 520.465 298.514C522.894 297.773 525.152 296.561 527.112 294.947C529.071 293.334 530.693 291.35 531.886 289.11C533.078 286.87 533.816 284.417 534.06 281.891L540.099 219.112C540.589 214.012 539.033 208.926 535.773 204.972C532.512 201.018 527.813 198.52 522.709 198.027C517.605 197.539 512.515 199.096 508.559 202.356C504.602 205.616 502.102 210.312 501.609 215.412L495.561 278.272C495.093 283.359 496.661 288.425 499.921 292.36C503.182 296.294 507.87 298.778 512.959 299.267Z" fill="#8C8C8C" stroke="#263238" stroke-linecap="round" stroke-linejoin="round"/>
<path d="M508.376 298.827C513.48 299.318 518.569 297.763 522.526 294.505C526.483 291.246 528.983 286.551 529.476 281.451L535.524 218.591C536 213.499 534.436 208.425 531.175 204.483C527.913 200.541 523.221 198.051 518.126 197.56C515.599 197.317 513.048 197.574 510.621 198.317C508.193 199.059 505.935 200.272 503.976 201.887C502.018 203.501 500.397 205.485 499.205 207.726C498.014 209.967 497.277 212.42 497.035 214.945L490.987 277.751C490.496 282.85 492.052 287.935 495.313 291.888C498.574 295.84 503.273 298.337 508.376 298.827Z" fill="#8C8C8C" stroke="#263238" stroke-linecap="round" stroke-linejoin="round"/>
<path d="M424.252 326.872L514.442 329.243C514.942 329.258 515.441 329.175 515.909 328.998C516.377 328.821 516.806 328.553 517.171 328.211C517.535 327.868 517.829 327.457 518.035 327C518.24 326.544 518.354 326.052 518.369 325.552L518.827 311.13C518.843 310.63 518.76 310.132 518.582 309.664C518.405 309.196 518.137 308.768 517.794 308.403C517.451 308.039 517.04 307.745 516.583 307.54C516.127 307.334 515.634 307.221 515.134 307.206L424.952 304.835C424.452 304.818 423.954 304.9 423.486 305.077C423.018 305.253 422.589 305.519 422.224 305.861C421.859 306.203 421.565 306.614 421.36 307.07C421.154 307.525 421.04 308.017 421.025 308.517L420.576 322.948C420.544 323.955 420.914 324.933 421.603 325.669C422.291 326.404 423.244 326.837 424.252 326.872Z" fill="#8C8C8C" stroke="#263238" stroke-linecap="round" stroke-linejoin="round"/>
<path d="M461.961 327.569L514.453 329.227C516.556 329.293 518.315 327.643 518.382 325.542L518.838 311.118C518.904 309.016 517.253 307.258 515.15 307.192L462.658 305.534C460.555 305.468 458.796 307.118 458.729 309.22L458.273 323.643C458.207 325.745 459.858 327.503 461.961 327.569Z" fill="#8C8C8C" stroke="#263238" stroke-linecap="round" stroke-linejoin="round"/>
<path d="M418.239 388.582L417.799 391.905C417.799 391.905 413.809 399.879 412.254 401.208C410.7 402.537 400.949 406.74 399.179 407.405C397.408 408.069 400.509 410.099 404.724 410.287C408.938 410.476 416.694 410.512 419.354 409.847C422.014 409.183 427.109 405.411 428.224 405.195L429.122 408.069C429.122 408.069 434.002 406.273 435.772 405.86C437.543 405.447 440.428 403.166 440.428 403.166C439.42 400.072 438.238 397.038 436.887 394.078C436.068 392.593 435.019 391.247 433.777 390.091L430.461 386.14L418.239 388.582Z" fill="#263238" stroke="#263238" stroke-linecap="round" stroke-linejoin="round"/>
<path d="M445.065 262.036L437.75 266.464L421.789 271.115C421.789 271.115 371.248 280.418 368.363 283.768C365.479 287.118 366.566 289.973 369.028 294.185C371.491 298.396 414.285 391.681 414.285 391.681L432.025 388.134L402.315 298.809C402.315 298.809 458.185 310.106 467.918 308.328C477.65 306.55 490.088 296.151 492.299 288.177C494.509 280.203 484.318 267.523 484.318 267.523L445.065 262.036Z" fill="#1B9E4B" stroke="#263238" stroke-linecap="round" stroke-linejoin="round"/>
<path d="M389.743 290.144C389.743 290.144 400.913 295.532 402.917 301.593" stroke="#263238" stroke-linecap="round" stroke-linejoin="round"/>
<path d="M502.921 188.05L478.98 185.832L443.959 265.134L467.01 269.122L502.921 188.05Z" fill="#E9F9EF" stroke="#263238" stroke-linecap="round" stroke-linejoin="round"/>
<path d="M479.421 193.241C479.421 193.241 444.4 264.012 443.941 265.134C443.483 266.257 433.526 269.122 431.306 269.562C429.086 270.002 421.771 271.115 421.771 271.115L434.191 262.701L443.043 239.883L432.259 234.378C432.259 234.378 452.209 204.475 456.639 194.282C461.07 184.09 462.813 181.396 467.235 181.18C471.656 180.965 484.309 181.845 484.309 181.845L479.421 193.241Z" fill="#1B9E4B" stroke="#263238" stroke-linecap="round" stroke-linejoin="round"/>
<path d="M474.55 208.201L474.99 213.302C474.99 213.302 451.715 254.942 451.499 255.831C451.283 256.72 453.296 262.916 453.296 262.916L461.501 256.936L477.012 214.191L481.227 211.748V203.837L474.55 208.201Z" fill="#263238" stroke="#263238" stroke-linecap="round" stroke-linejoin="round"/>
<path d="M483.806 131.656C483.806 131.656 475.574 151.573 473.75 157.608C471.926 163.642 470.641 173.503 471.054 174.598C471.468 175.694 473.75 179.528 478.001 179.717C482.252 179.905 485.864 179.896 485.864 179.896L479.466 193.241C479.466 193.241 480.194 203.657 481.263 203.837C482.332 204.017 498.455 191.597 498.823 191.04C499.191 190.484 509.427 168.59 509.427 168.59C509.427 168.59 518.576 164.02 519.124 159.997C519.303 158.871 519.176 157.718 518.757 156.659C518.339 155.599 517.643 154.671 516.742 153.971V149.032L520.768 136.972C520.768 136.972 510.712 130.399 499.551 127.651C488.389 124.903 486.017 126.753 486.017 126.753L483.806 131.656Z" fill="#E9F9EF" stroke="#263238" stroke-linecap="round" stroke-linejoin="round"/>
<path d="M502.274 120.512C502.274 120.512 485.819 116.12 478.504 122.523C471.189 128.926 490.205 139.19 496.423 140.088C502.642 140.986 510.326 139.72 508.493 141.372C506.659 143.024 502.642 145.575 504.655 147.218C505.919 148.232 507.339 149.033 508.861 149.589C508.861 149.589 500.27 168.447 498.805 170.602C497.34 172.757 494.599 172.614 492.955 172.066C491.31 171.518 483.447 166.588 480.885 165.672C478.324 164.756 473.57 162.017 472.474 164.945C471.378 167.872 468.628 180.291 472.654 183.03C476.68 185.769 496.244 178.828 499.173 176.816C502.103 174.805 503.011 171.15 503.559 170.422C504.107 169.695 511.97 156.719 512.698 155.803C513.426 154.887 516.724 154.007 516.724 154.007C516.724 154.007 523.312 140.842 523.86 135.733C524.408 130.623 507.216 120.332 502.274 120.512Z" fill="#263238" stroke="#263238" stroke-linecap="round" stroke-linejoin="round"/>
<path d="M485.091 145.907L484.723 153.989C484.723 153.989 476.132 163.669 476.132 164.765C476.132 165.861 486.367 164.585 486.367 164.585" stroke="#263238" stroke-linecap="round" stroke-linejoin="round"/>
<path d="M483.806 144.084C483.492 143.472 482.973 142.989 482.338 142.722C481.704 142.454 480.995 142.418 480.337 142.62" stroke="#263238" stroke-linecap="round" stroke-linejoin="round"/>
<path d="M491.49 148.646C491.49 148.646 496.792 148.098 498.436 152.121" stroke="#263238" stroke-linecap="round" stroke-linejoin="round"/>
<path d="M477.192 168.932C477.192 168.932 481.946 171.859 485.055 171.859" stroke="#E9F9EF" stroke-linecap="round" stroke-linejoin="round"/>
<path d="M493.296 156.566C492.793 157.563 491.876 158.102 491.247 157.788C490.618 157.473 490.51 156.405 491.013 155.417C491.517 154.429 492.433 153.881 493.062 154.196C493.691 154.51 493.799 155.579 493.296 156.566Z" fill="#263238"/>
<path d="M481.847 152.121C481.353 153.109 480.427 153.657 479.798 153.334C479.169 153.01 479.061 151.96 479.564 150.963C480.068 149.966 480.984 149.427 481.613 149.751C482.242 150.074 482.35 151.124 481.847 152.121Z" fill="#263238"/>
<path d="M402.504 381.174L400.949 390.477L397.624 391.375C397.624 391.375 394.515 395.12 393.859 396.018C393.203 396.916 384.989 402.879 382.778 403.992C380.567 405.106 375.014 405.537 375.238 407.09C375.463 408.644 387.209 409.973 394.748 410.188C402.288 410.404 406.494 407.979 406.494 407.979L407.159 409.524L414.914 408.859C414.914 408.859 414.474 401.55 414.699 398.452C414.769 395.932 414.619 393.411 414.249 390.917L413.809 384.497L402.504 381.174Z" fill="#263238" stroke="#263238" stroke-linecap="round" stroke-linejoin="round"/>
<path d="M464.799 272.444C464.799 272.444 401.839 280.194 400.509 281.747C399.179 283.301 400.284 329.153 400.284 329.153L392.969 382.817L415.579 389.732C415.579 389.732 422.679 344.482 425.114 332.26C426.779 323.172 427.964 314.003 428.664 304.79C428.664 304.79 463.469 312.764 475.395 306.119C487.32 299.474 484.921 291.275 484.921 291.275" fill="#1B9E4B"/>
<path d="M464.799 272.444C464.799 272.444 401.839 280.194 400.509 281.747C399.179 283.301 400.284 329.153 400.284 329.153L392.969 382.817L415.579 389.732C415.579 389.732 422.679 344.482 425.114 332.26C426.779 323.172 427.964 314.003 428.664 304.79C428.664 304.79 463.469 312.764 475.395 306.119C487.32 299.474 484.921 291.275 484.921 291.275" stroke="#263238" stroke-linecap="round" stroke-linejoin="round"/>
<path d="M401.488 327.357C401.488 327.357 404.355 314.48 404.921 307.601" stroke="#263238" stroke-linecap="round" stroke-linejoin="round"/>
<path d="M423.982 297.382C423.3 296.469 422.478 295.669 421.547 295.011" stroke="#263238" stroke-linecap="round" stroke-linejoin="round"/>
<path d="M428.664 304.79C428.664 304.79 427.388 302.294 425.716 299.77" stroke="#263238" stroke-linecap="round" stroke-linejoin="round"/>
<path d="M502.04 183.839C502.04 183.839 476.985 229.888 471.665 241.652C466.345 253.416 459.219 269.786 459.219 271.555C459.219 273.324 454.564 318.745 456.118 319.625C457.673 320.505 480.939 312.98 491.804 308.777C502.669 304.575 503.11 301.468 503.999 299.025C504.889 296.583 504.664 265.135 504.664 265.135C504.664 265.135 527.275 200.892 527.05 198.018C526.825 195.144 502.04 183.839 502.04 183.839Z" fill="#1B9E4B" stroke="#263238" stroke-linecap="round" stroke-linejoin="round"/>
<path d="M482.997 230.427C478.89 234.45 475.44 237.449 475.44 237.449" stroke="#263238" stroke-linecap="round" stroke-linejoin="round"/>
<path d="M510.02 188.93C510.02 188.93 499.605 209.315 494.276 217.514C491.646 221.271 488.68 224.782 485.415 228.002" stroke="#263238" stroke-linecap="round" stroke-linejoin="round"/>
<path d="M476.698 184.656C476.698 184.656 465.914 202.67 462.804 213.302C459.695 223.934 459.03 229.466 459.03 229.466" stroke="#263238" stroke-linecap="round" stroke-linejoin="round"/>
<path d="M471 210.419L481.245 203.837L481.64 219.283" stroke="#263238" stroke-linecap="round" stroke-linejoin="round"/>
<path d="M492.856 279.628L496.28 279.089" stroke="#263238" stroke-linecap="round" stroke-linejoin="round"/>
<path d="M495.165 275.102L471 277.985V283.077L488.255 280.356" stroke="#263238" stroke-linecap="round" stroke-linejoin="round"/>
<path d="M461.474 191.588C461.474 191.588 465.464 183.174 467.459 182.95C469.454 182.725 473.885 182.95 473.885 184.746C473.885 186.542 471.45 186.739 471.45 186.739H468.124L466.57 190.726L461.474 191.588Z" fill="#E9F9EF" stroke="#263238" stroke-linecap="round" stroke-linejoin="round"/>
<path d="M455.93 207.537L457.484 198.898C457.484 198.898 458.149 191.373 459.282 190.924C460.414 190.475 470.587 190.708 470.587 190.708C470.587 190.708 470.811 199.562 469.922 201.78C469.032 203.999 465.042 204.879 465.042 204.879C464.674 206.26 464.156 207.597 463.496 208.866C462.831 209.764 460.387 210.859 460.387 210.859L459.722 212.655L453.961 208.884L455.93 207.537Z" fill="#E9F9EF" stroke="#263238" stroke-linecap="round" stroke-linejoin="round"/>
<path d="M465.015 204.888L463.91 200.676L468.124 200.451" fill="#E9F9EF"/>
<path d="M465.015 204.888L463.91 200.676L468.124 200.451" stroke="#263238" stroke-linecap="round" stroke-linejoin="round"/>
<path d="M453.71 206.881L462.804 213.302L459.255 217.064L451.499 209.979L453.71 206.881Z" fill="#E9F9EF" stroke="#263238" stroke-linecap="round" stroke-linejoin="round"/>
<path d="M451.499 209.979L461.915 217.729L441.964 248.081C439.604 248.582 437.152 248.427 434.874 247.632C431.099 246.303 427.559 238.778 427.559 237.889C427.559 237 451.499 209.979 451.499 209.979Z" fill="#1B9E4B" stroke="#263238" stroke-linecap="round" stroke-linejoin="round"/>
<path d="M443.519 245.199C443.519 245.199 440.194 238.994 439.969 237.225C439.745 235.456 439.529 231.908 438.415 230.579C437.3 229.25 435.979 228.361 435.539 226.368C435.098 224.374 433.094 225.263 432.843 227.266C432.591 229.268 434.389 231.253 434.389 231.253C434.389 231.253 428.853 229.457 427.963 229.924C427.073 230.391 425.267 231.028 425.743 232.618C426.039 233.593 426.415 234.542 426.867 235.456C426.867 235.456 423.326 240.107 423.326 242.316C423.326 244.525 425.761 248.081 427.541 249.41C429.32 250.739 435.521 252.104 435.521 252.104L443.519 245.199Z" fill="#E9F9EF" stroke="#263238" stroke-linecap="round" stroke-linejoin="round"/>
<path d="M507.477 199.616L487.41 241.212L438.415 243.906C437.179 244.205 436.05 244.838 435.151 245.737C434.252 246.635 433.618 247.763 433.319 248.997C432.804 251.024 432.58 253.113 432.654 255.203C432.654 255.203 465.24 259.19 475.44 259.854C485.639 260.519 498.05 261.848 499.605 260.294C501.159 258.741 519.555 220.648 519.555 220.648" fill="#1B9E4B"/>
<path d="M507.477 199.616L487.41 241.212L438.415 243.906C437.179 244.205 436.05 244.838 435.151 245.737C434.252 246.635 433.618 247.763 433.319 248.997C432.804 251.024 432.58 253.113 432.654 255.203C432.654 255.203 465.24 259.19 475.44 259.854C485.639 260.519 498.05 261.848 499.605 260.294C501.159 258.741 519.555 220.648 519.555 220.648" stroke="#263238" stroke-linecap="round" stroke-linejoin="round"/>
<path d="M214.215 321.942H209.093V371.26H214.215V321.942Z" fill="#263238" stroke="#263238" stroke-linecap="round" stroke-linejoin="round"/>
<path d="M183.003 274.69L173.97 275.746L179.702 324.73L188.735 323.675L183.003 274.69Z" fill="#263238" stroke="#263238" stroke-linecap="round" stroke-linejoin="round"/>
<path d="M218.16 373.272V364.956H205.157V373.344L153.142 394.204V404.046H156.692V396.566L211.843 384.021L265.538 396.566V404.046H268.989V394.204L218.16 373.272Z" fill="#8C8C8C" stroke="#263238" stroke-linecap="round" stroke-linejoin="round"/>
<path d="M224.46 321.942H198.848V337.693H224.46V321.942Z" fill="#263238" stroke="#263238" stroke-linecap="round" stroke-linejoin="round"/>
<path d="M153.142 404.441C153.142 403.351 152.818 402.285 152.212 401.378C151.606 400.471 150.744 399.765 149.736 399.347C148.727 398.93 147.618 398.821 146.547 399.033C145.477 399.246 144.494 399.771 143.722 400.542C142.951 401.314 142.425 402.296 142.212 403.366C141.999 404.435 142.109 405.544 142.526 406.551C142.944 407.559 143.651 408.42 144.558 409.026C145.466 409.632 146.533 409.955 147.624 409.955C149.087 409.955 150.491 409.374 151.526 408.34C152.56 407.306 153.142 405.904 153.142 404.441Z" fill="#263238" stroke="#263238" stroke-linecap="round" stroke-linejoin="round"/>
<path d="M149.987 404.441C149.987 403.974 149.849 403.518 149.589 403.129C149.329 402.741 148.96 402.438 148.528 402.259C148.097 402.081 147.621 402.034 147.163 402.125C146.704 402.216 146.283 402.441 145.953 402.771C145.622 403.102 145.397 403.522 145.306 403.981C145.215 404.439 145.262 404.914 145.44 405.345C145.619 405.777 145.922 406.146 146.311 406.405C146.7 406.665 147.157 406.803 147.624 406.803C148.251 406.803 148.852 406.554 149.295 406.111C149.738 405.668 149.987 405.068 149.987 404.441Z" fill="#E9F9EF" stroke="#263238" stroke-linecap="round" stroke-linejoin="round"/>
<path d="M280.384 404.441C280.384 403.351 280.06 402.285 279.454 401.378C278.848 400.471 277.986 399.765 276.978 399.347C275.97 398.93 274.86 398.821 273.79 399.033C272.719 399.246 271.736 399.771 270.965 400.542C270.193 401.314 269.667 402.296 269.454 403.366C269.241 404.435 269.351 405.544 269.768 406.551C270.186 407.559 270.893 408.42 271.801 409.026C272.708 409.632 273.775 409.955 274.866 409.955C276.33 409.955 277.733 409.374 278.768 408.34C279.803 407.306 280.384 405.904 280.384 404.441Z" fill="#263238" stroke="#263238" stroke-linecap="round" stroke-linejoin="round"/>
<path d="M274.902 406.803C276.207 406.803 277.266 405.746 277.266 404.441C277.266 403.137 276.207 402.08 274.902 402.08C273.597 402.08 272.539 403.137 272.539 404.441C272.539 405.746 273.597 406.803 274.902 406.803Z" fill="#E9F9EF" stroke="#263238" stroke-linecap="round" stroke-linejoin="round"/>
<path d="M214.017 404.334H209.686L207.52 374.798H216.192L214.017 404.334Z" fill="#8C8C8C" stroke="#263238" stroke-linecap="round" stroke-linejoin="round"/>
<path d="M213.82 398.03H209.488V410.233H213.82V398.03Z" fill="#263238" stroke="#263238" stroke-linecap="round" stroke-linejoin="round"/>
<path d="M177.541 299.268C175.013 299.512 172.462 299.256 170.034 298.515C167.606 297.773 165.347 296.561 163.388 294.948C161.428 293.334 159.806 291.35 158.614 289.11C157.422 286.87 156.683 284.417 156.44 281.891L150.392 219.031C150.148 216.506 150.404 213.957 151.146 211.53C151.887 209.104 153.1 206.847 154.715 204.889C156.33 202.931 158.315 201.31 160.557 200.119C162.799 198.928 165.254 198.189 167.781 197.946C172.886 197.458 177.976 199.015 181.932 202.275C185.889 205.535 188.388 210.231 188.882 215.332L194.93 278.192C195.42 283.291 193.864 288.376 190.603 292.328C187.342 296.281 182.643 298.777 177.541 299.268Z" fill="#8C8C8C" stroke="#263238" stroke-linecap="round" stroke-linejoin="round"/>
<path d="M182.124 298.828C177.02 299.318 171.93 297.763 167.973 294.505C164.017 291.246 161.517 286.551 161.023 281.451L154.975 218.591C154.499 213.5 156.062 208.428 159.322 204.486C162.581 200.544 167.271 198.054 172.364 197.56C177.469 197.07 182.561 198.626 186.518 201.886C190.475 205.147 192.974 209.844 193.465 214.945L199.504 277.743C199.995 282.841 198.44 287.926 195.181 291.88C191.922 295.833 187.226 298.332 182.124 298.828Z" fill="#8C8C8C" stroke="#263238" stroke-linecap="round" stroke-linejoin="round"/>
<path d="M269.366 326.872L176.058 329.243C175.557 329.258 175.059 329.175 174.59 328.998C174.122 328.821 173.693 328.553 173.329 328.211C172.964 327.868 172.67 327.457 172.465 327C172.259 326.544 172.146 326.052 172.131 325.552L171.645 311.13C171.614 310.122 171.984 309.142 172.675 308.406C173.366 307.67 174.321 307.239 175.33 307.206L268.701 304.835C269.201 304.818 269.7 304.9 270.168 305.077C270.636 305.253 271.065 305.519 271.43 305.861C271.795 306.203 272.088 306.614 272.294 307.07C272.5 307.525 272.613 308.017 272.629 308.517L273.087 322.948C273.102 323.45 273.018 323.95 272.839 324.42C272.66 324.89 272.39 325.319 272.044 325.684C271.699 326.049 271.284 326.342 270.824 326.546C270.365 326.75 269.869 326.86 269.366 326.872Z" fill="#8C8C8C" stroke="#263238" stroke-linecap="round" stroke-linejoin="round"/>
<path d="M227.865 305.543L175.373 307.201C173.27 307.267 171.619 309.025 171.685 311.127L172.141 325.551C172.208 327.652 173.967 329.302 176.07 329.236L228.562 327.578C230.665 327.512 232.317 325.754 232.25 323.652L231.794 309.229C231.728 307.127 229.969 305.477 227.865 305.543Z" fill="#8C8C8C" stroke="#263238" stroke-linecap="round" stroke-linejoin="round"/>
<path d="M281.283 297.499C281.283 297.499 282.082 312.908 284.203 326.71C286.324 340.513 289.838 382.386 289.838 382.386C290.943 386.591 292.448 390.681 294.331 394.599C295.589 397.201 297.197 399.618 299.112 401.783C299.112 401.783 306.023 408.689 305.753 409.749C305.484 410.808 301.152 410.7 296.902 409.901C292.651 409.102 291.779 408.105 289.389 406.498C286.998 404.89 281.561 402.834 279.171 402.008C276.78 401.182 275.99 399.098 276.789 396.71C277.589 394.321 280.249 388.744 280.249 385.296C280.249 381.848 278.119 365.486 272.296 354.593C266.473 343.701 262.995 324.852 262.995 324.852L281.283 297.499Z" fill="#E9F9EF" stroke="#263238" stroke-linecap="round" stroke-linejoin="round"/>
<path d="M282.694 397.509C281.004 396.198 279.422 394.815 278.074 393.513C277.571 394.797 277.104 395.928 276.843 396.71C276.043 399.098 276.843 401.2 279.225 402.008C281.606 402.816 287.052 404.881 289.443 406.498C291.833 408.114 292.705 409.102 296.955 409.901C301.206 410.7 305.547 410.799 305.807 409.749C306.068 408.698 299.166 401.783 299.166 401.783L295.715 403.382C295.715 403.382 287.474 401.227 282.694 397.509Z" fill="#1B9E4B" stroke="#263238" stroke-linecap="round" stroke-linejoin="round"/>
<path d="M179.338 265.853C179.338 265.853 176.947 275.21 178.251 281.119C179.554 287.028 188.486 300.695 203.943 303.964C219.4 307.233 258.25 306.164 258.25 306.164C258.25 306.164 248.886 320.379 245.399 337.495C243.098 348.828 236.044 364.687 234.956 367.084C233.869 369.482 221.018 373.828 221.476 375.786C221.935 377.744 223.435 389.921 226.698 394.931C229.96 399.942 235.406 402.115 237.58 402.762C239.755 403.409 240.196 403.409 240.196 401.235C240.196 399.062 238.668 396.018 238.668 394.051C238.668 392.085 238.452 378.785 239.324 377.079C240.196 375.373 268.701 330.464 273.051 323.1C277.4 315.737 284.158 301.342 286.117 298.953C288.077 296.564 290.467 293.296 288.508 289.165C286.549 285.034 241.571 271.205 241.571 271.205L239.207 262.845L216.74 261.542L179.338 265.853Z" fill="#E9F9EF" stroke="#263238" stroke-linecap="round" stroke-linejoin="round"/>
<path d="M241.571 271.196L239.207 262.836L216.74 261.534L179.293 265.88C179.293 265.88 176.849 275.246 178.206 281.146C180.362 290.476 188.441 300.722 203.898 303.991C219.356 307.26 258.205 306.191 258.205 306.191C258.205 306.191 261.889 287.791 269.088 280.616C260.443 277.671 241.571 271.196 241.571 271.196Z" fill="#263238" stroke="#263238" stroke-linecap="round" stroke-linejoin="round"/>
<path d="M258.25 306.128C263.434 304.756 268.466 302.861 273.267 300.471L258.25 306.128Z" fill="#E9F9EF"/>
<path d="M258.25 306.128C263.434 304.756 268.466 302.861 273.267 300.471" stroke="#263238" stroke-linecap="round" stroke-linejoin="round"/>
<path d="M228.854 386.194C227.309 382.602 227.408 375.418 227.605 371.574C224.316 373.2 221.234 374.771 221.458 375.75C221.89 377.708 223.418 389.885 226.68 394.896C229.942 399.906 235.388 402.08 237.563 402.726C239.737 403.373 240.178 403.373 240.178 401.199C240.178 399.026 238.659 395.991 238.65 394.015C236.373 393.726 234.119 393.285 231.901 392.695C231.901 392.695 231.029 391.196 228.854 386.194Z" fill="#1B9E4B" stroke="#263238" stroke-linecap="round" stroke-linejoin="round"/>
<path d="M225.709 179.708L218.96 182.536C218.96 182.536 224.406 233.48 224.19 240.664C223.975 247.848 223.534 262.216 223.534 262.216C223.534 262.216 232.898 265.045 239.207 262.872L238.776 238.293C238.776 238.293 243.35 214.793 241.607 207.178C239.863 199.563 234.417 186.075 234.417 186.075C234.417 186.075 231.856 179.923 225.709 179.708Z" fill="#E9F9EF" stroke="#263238" stroke-linecap="round" stroke-linejoin="round"/>
<path d="M223.768 201.682L230.31 191.723L238.353 203.397C238.353 203.397 234.876 187.08 234.435 185.994C233.392 183.946 231.815 182.218 229.87 180.992C227.255 179.25 224.199 179.196 222.465 179.034C220.731 178.873 218.978 182.519 218.978 182.519L223.768 201.682Z" fill="#E9F9EF" stroke="#263238" stroke-linecap="round" stroke-linejoin="round"/>
<path d="M220.713 178.909C220.713 178.909 198.83 183.695 196.952 185.06C195.074 186.425 194.256 190.87 194.723 192.576C195.19 194.282 200.196 231.19 200.196 231.19L175.033 267.918C175.033 267.918 183.247 274.752 190.94 276.117C198.632 277.482 215.042 275.435 220.856 273.046L226.671 270.657C226.671 270.657 229.367 226.063 226.5 208.462C223.633 190.861 220.713 178.909 220.713 178.909Z" fill="#1B9E4B" stroke="#263238" stroke-linecap="round" stroke-linejoin="round"/>
<path d="M287.906 235.626L296.452 231.873C296.452 231.873 299.022 226.233 299.364 225.721C299.705 225.21 302.608 224.356 303.974 223.153C305.34 221.95 307.227 219.911 307.739 219.741C308.252 219.57 309.105 221.106 307.739 223.153C306.704 224.604 305.497 225.925 304.145 227.086L312.529 224.015C312.529 224.015 315.773 218.546 316.627 220.935C317.481 223.324 313.033 230.678 312.017 233.067C311.002 235.456 309.959 236.659 308.081 237C306.203 237.342 300.388 238.365 299.193 238.536C297.998 238.707 290.638 242.972 290.638 242.972L287.906 235.626Z" fill="#E9F9EF" stroke="#263238" stroke-linecap="round" stroke-linejoin="round"/>
<path d="M299.768 233.92C301.287 232.636 303.039 231.361 303.974 231.361C305.861 231.361 309.959 231.702 309.959 231.702C309.959 231.702 312.359 226.233 313.554 225.416C314.749 224.599 315.773 225.757 314.749 227.463" fill="#E9F9EF"/>
<path d="M299.768 233.92C301.287 232.636 303.039 231.361 303.974 231.361C305.861 231.361 309.959 231.702 309.959 231.702C309.959 231.702 312.359 226.233 313.554 225.416C314.749 224.599 315.773 225.757 314.749 227.463" stroke="#263238" stroke-linecap="round" stroke-linejoin="round"/>
<path d="M232.171 183.012C232.171 183.012 237.643 206.756 237.473 215.637C237.302 224.518 234.552 228.99 235.073 232.043C235.594 235.096 236.781 270.998 236.781 270.998L241.571 271.169C241.571 271.169 240.375 257.502 240.546 254.933C240.717 252.365 242.424 242.119 242.424 242.119C242.424 242.119 250.98 259.037 252.175 259.89C253.37 260.743 293.037 243.834 293.037 243.834L290.126 234.091L259.867 240.242C259.867 240.242 253.882 220.423 253.029 216.149C252.175 211.874 251.492 196.851 249.092 193.088C246.693 189.325 232.171 183.012 232.171 183.012Z" fill="#1B9E4B" stroke="#263238" stroke-linecap="round" stroke-linejoin="round"/>
<path d="M242.424 242.119C242.424 242.119 243.449 237.853 245.165 226.574C246.197 219.841 246.254 212.994 245.336 206.244" stroke="#263238" stroke-linecap="round" stroke-linejoin="round"/>
<path d="M240.555 196.312C241.373 202.463 241.984 210.06 240.888 214.272C239.636 219.052 238.035 223.734 236.098 228.281" stroke="#263238" stroke-linecap="round" stroke-linejoin="round"/>
<path d="M239.045 186.784C239.045 186.784 239.558 189.361 240.124 193.07" stroke="#263238" stroke-linecap="round" stroke-linejoin="round"/>
<path d="M222.69 220.01C224.909 225.506 226.868 230.867 226.868 230.867" stroke="#263238" stroke-linecap="round" stroke-linejoin="round"/>
<path d="M212.337 181.639C212.337 181.639 216.264 205.732 219.347 212.225C219.976 213.545 220.659 215.107 221.351 216.715" stroke="#263238" stroke-linecap="round" stroke-linejoin="round"/>
<path d="M260.892 230.508L267.56 228.622C267.56 228.622 271.838 223.153 272.862 221.788C273.887 220.423 276.277 220.423 277.994 219.399C279.71 218.376 281.921 214.613 282.774 215.296C283.628 215.978 282.774 219.058 281.876 219.911C280.731 220.837 279.53 221.691 278.281 222.471C277.598 222.982 286.315 220.935 286.315 220.935C286.315 220.935 291.959 215.978 292.3 217.343C292.642 218.708 289.73 223.494 289.73 223.494C289.73 223.494 285.632 227.419 283.574 229.125C281.516 230.831 276.565 231.522 275.199 231.819C273.833 232.115 271.442 232.501 271.442 232.501L261.179 236.255L260.892 230.508Z" fill="#E9F9EF" stroke="#263238" stroke-linecap="round" stroke-linejoin="round"/>
<path d="M288.418 224.5C288.418 224.5 284.823 226.206 282.945 227.059L288.418 224.5Z" fill="#E9F9EF"/>
<path d="M288.418 224.5C288.418 224.5 284.823 226.206 282.945 227.059" stroke="#263238" stroke-linecap="round" stroke-linejoin="round"/>
<path d="M278.335 222.471L275.253 223.153" stroke="#263238" stroke-linecap="round" stroke-linejoin="round"/>
<path d="M200.708 183.695C200.708 183.695 190.625 187.107 189.079 189.676C187.534 192.244 193.016 213.248 197.123 224.868C201.229 236.488 212.166 255.957 213.532 256.64C214.898 257.322 250.638 244.687 258.816 242.119C266.994 239.551 268.387 238.195 268.387 238.195L264.792 228.963L223.768 236.309L211.187 196.851" fill="#1B9E4B"/>
<path d="M200.708 183.695C200.708 183.695 190.625 187.107 189.079 189.676C187.534 192.244 193.016 213.248 197.123 224.868C201.229 236.488 212.166 255.957 213.532 256.64C214.898 257.322 250.638 244.687 258.816 242.119C266.994 239.551 268.387 238.195 268.387 238.195L264.792 228.963L223.768 236.309L211.187 196.851" stroke="#263238" stroke-linecap="round" stroke-linejoin="round"/>
<path d="M250.252 131.665C250.252 131.665 254.242 134.359 252.22 137.259C250.198 140.16 245.929 140.358 245.929 140.358L242.2 134.485C242.2 134.485 246.639 129.222 250.252 131.665Z" fill="#263238" stroke="#263238" stroke-linecap="round" stroke-linejoin="round"/>
<path d="M246.064 135.167C246.064 135.167 252.184 149.679 251.842 150.927C251.501 152.175 248.652 154.124 249.946 156.019C251.24 157.913 255.033 161.703 254.934 162.233C254.835 162.763 250.198 165.466 250.198 165.466C250.198 165.466 246.954 177.14 245.633 178.846C244.312 180.552 233.159 178.478 233.159 178.478L230.805 191.553L217.558 179.214L212.607 174.544C212.607 174.544 208.167 154.627 217.585 142.656C227.003 130.686 246.064 135.167 246.064 135.167Z" fill="#E9F9EF" stroke="#263238" stroke-linecap="round" stroke-linejoin="round"/>
<path d="M245.219 155.614C245.219 156.836 244.716 157.824 244.15 157.815C243.584 157.806 243.143 156.8 243.17 155.57C243.197 154.339 243.664 153.36 244.231 153.369C244.797 153.378 245.237 154.384 245.219 155.614Z" fill="#263238"/>
<path d="M245.246 168.384C244.187 168.334 243.15 168.07 242.197 167.606C241.244 167.143 240.395 166.491 239.701 165.69C239.701 165.69 239.369 170.943 241.004 171.249C242.64 171.554 245.246 168.384 245.246 168.384Z" fill="#263238" stroke="#263238" stroke-linecap="round" stroke-linejoin="round"/>
<path d="M241.804 150.747C241.804 150.747 245.21 147.865 248.257 151.241" stroke="#263238" stroke-linecap="round" stroke-linejoin="round"/>
<path d="M233.159 178.478L227.632 177.157L231.793 184.871L233.159 178.478Z" fill="#263238" stroke="#263238" stroke-linecap="round" stroke-linejoin="round"/>
<path d="M246.064 135.167C246.064 135.167 244.86 138.948 238.973 143.887C233.087 148.826 227.821 151.969 227.839 153.334C227.857 154.699 228.738 155.974 227.551 156.306C226.584 156.429 225.602 156.264 224.73 155.83C224.73 155.83 221.872 163.975 221.44 169.722C221.265 173.515 221.842 177.306 223.139 180.875C223.139 180.875 210.459 181.558 203.144 176.008C195.828 170.458 193.771 164.172 194.579 158.722C195.388 153.271 197.707 136.056 208.958 127.624C220.209 119.192 236.331 119.542 241.804 122.981C247.277 126.421 251.24 128.944 250.234 131.665C249.227 134.386 246.064 135.167 246.064 135.167Z" fill="#263238" stroke="#263238" stroke-linecap="round" stroke-linejoin="round"/>
<path d="M219.49 306.676C219.155 306.678 218.823 306.604 218.52 306.46C217.878 306.111 217.387 305.539 217.137 304.853C216.887 304.167 216.896 303.414 217.163 302.734C221.225 291.652 225.88 271.887 221.108 265.988C219.994 265.09 213.281 263.294 177.118 267.029L174.485 267.299C171.96 267.514 169.803 271.16 169.246 272.417C169.127 272.738 168.941 273.03 168.7 273.273C168.459 273.516 168.169 273.705 167.848 273.827C167.528 273.948 167.186 274 166.844 273.978C166.502 273.957 166.169 273.862 165.867 273.701C165.248 273.305 164.793 272.699 164.585 271.995C164.377 271.291 164.43 270.535 164.735 269.867C165.085 269.077 168.329 262.108 174.099 261.605L176.66 261.345C215.195 257.34 222.582 259.36 224.828 262.126C233.312 272.615 223.031 301.638 221.818 304.916C221.66 305.414 221.351 305.851 220.934 306.166C220.517 306.481 220.013 306.659 219.49 306.676Z" fill="#E9F9EF" stroke="#263238" stroke-linecap="round" stroke-linejoin="round"/>
<path d="M378.357 222.291H319.305L305.646 268.529H364.697L378.357 222.291Z" fill="#D9D9D9" stroke="#263238" stroke-linecap="round" stroke-linejoin="round"/>
<path d="M262.447 265.997L261.701 268.529H364.697L365.452 265.997H262.447Z" fill="#D9D9D9" stroke="#263238" stroke-linecap="round" stroke-linejoin="round"/>
<path d="M306.499 265.997L305.753 268.529H364.697L365.452 265.997H306.499Z" fill="#263238" stroke="#263238" stroke-linecap="round" stroke-linejoin="round"/>
<path d="M363.852 275.47H353.859V408.985H363.852V275.47Z" fill="#E9F9EF" stroke="#263238" stroke-linecap="round" stroke-linejoin="round"/>
<path d="M363.852 275.47H353.859V297.525H363.852V275.47Z" fill="#263238" stroke="#263238" stroke-linecap="round" stroke-linejoin="round"/>
<path d="M485.253 268.556H231.559V275.973H485.253V268.556Z" fill="#E9F9EF" stroke="#263238" stroke-linecap="round" stroke-linejoin="round"/>
<path d="M410.996 410.072H305.852C316.254 405.183 327.608 402.65 339.103 402.654H377.862C389.357 402.648 400.712 405.181 411.113 410.072H410.996Z" fill="#E9F9EF" stroke="#263238" stroke-linecap="round" stroke-linejoin="round"/>
</svg>
